# xmcd CD database file generated by Grip 2.95
# 
# Track frame offsets:
#       150
#       11615
#       31719
#       47495
#       65787
#       85865
#       103042
#       118207
#       136975
#       154250
#       177315
#       197517
#       218232
#       235360
#       250797
#       264660
#       284090
#       301925
# 
# Disc length: 4238 seconds
# 
# Revision: 3
# Processed by: cddbd v1.4PL0 Copyright (c) Steve Scherf et al.
# Submitted via: Grip 2.95
# 
DISCID=03108c12
DTITLE=Dr. Hector and the Groove Injectors - Cure for the Common Groove
DYEAR=1900
DGENRE=
TTITLE0=Risky Business
TTITLE1=Bad News
TTITLE2=Just to Satisfy You
TTITLE3=Confusion
TTITLE4=14 Carat Fool
TTITLE5=King Snake Shake
TTITLE6=Two Strong People
TTITLE7=Real Good Sign
TTITLE8=Wrong Side of Love
TTITLE9=Safe in Your Arms Again
TTITLE10=Pickin' the Blues
TTITLE11=Mystery Man
TTITLE12=Midnight Run
TTITLE13=I Wonder Where I'm Going to Sleep Tonight
TTITLE14=Can't Take No For an Answer
TTITLE15=All Cried Out
TTITLE16=Mr. Right Now
TTITLE17=Emergency
EXTD=
EXTT0=
EXTT1=
EXTT2=
EXTT3=
EXTT4=
EXTT5=
EXTT6=
EXTT7=
EXTT8=
EXTT9=
EXTT10=
EXTT11=
EXTT12=
EXTT13=
EXTT14=
EXTT15=
EXTT16=
EXTT17=
PLAYORDER=
